#!OML:ASF H:\Punching\Project 1\Capture day 1\Session 1\female.ASF
:FULLY-SPECIFIED
:DEGREES
2158
root -0.924658 14.5137 -2.25577 15.9756 -19.1812 -5.38778
lowerback -8.11061 4.35636 7.58615
upperback -8.53613 5.351 -1.93867
thorax -3.56642 2.23832 -5.97193
lowerneck -13.1117 7.43228 12.9443
upperneck 32.0246 9.9301 -7.48394
head 14.2233 4.93958 -3.61024
rclavicle -4.37326e-014 -1.59028e-014
rhumerus 5.91419 28.8094 -77.1768
rradius 127.998
rwrist -11.4354
rhand -35.1886 10.3381
rfingers 7.12502
rthumb -8.32679 -19.4778
lclavicle -4.37326e-014 -1.59028e-014
lhumerus -4.72527 -8.83086 55.8179
lradius 139.077
lwrist -2.7798
lhand -30.8752 2.40974
lfingers 7.12502
lthumb -4.16261 32.3488
rfemur 2.64623 6.83892 23.453
rtibia 21.3507
rfoot -34.2446 -35.3666
rtoes -5.58895
lfemur -55.6602 7.87643 -3.11034
ltibia 46.428
lfoot -4.03614 16.9261
ltoes 2.60512
2159
root -0.894191 14.479 -2.15515 16.0448 -18.4752 -5.46656
lowerback -8.2527 4.53401 7.77794
upperback -8.65051 5.56941 -2.05066
thorax -3.55331 2.33395 -6.17432
lowerneck -13.4641 7.15387 12.6969
upperneck 31.9041 9.37765 -7.0369
head 14.1273 4.72074 -3.47136
rclavicle -2.13694e-014 -1.11319e-014
rhumerus 5.58766 28.3835 -77.2199
rradius 128.092
rwrist -11.4457
rhand -35.2153 10.6711
rfingers 7.12502
rthumb -8.35252 -19.1437
lclavicle -2.13694e-014 -1.11319e-014
lhumerus -4.9 -8.78098 55.4136
lradius 139.184
lwrist -2.47866
lhand -30.5419 2.71112
lfingers 7.12502
lthumb -3.84078 32.6563
rfemur 3.35688 7.07558 23.663
rtibia 20.9064
rfoot -34.5867 -35.9251
rtoes -5.89695
lfemur -56.2196 7.59237 -3.34032
ltibia 46.6622
lfoot -3.54761 16.4857
ltoes 2.64142
2160
root -0.860441 14.4419 -2.05144 16.0862 -17.7097 -5.54536
lowerback -8.36965 4.70323 7.99142
upperback -8.76661 5.77796 -2.15412
thorax -3.55508 2.42303 -6.38197
lowerneck -13.8171 6.86228 12.42
upperneck 31.7923 8.8169 -6.58666
head 14.0383 4.49583 -3.32857
rclavicle -5.37713e-014 -2.06736e-014
rhumerus 5.27749 27.9235 -77.1939
rradius 128.185
rwrist -11.3686
rhand -35.2613 10.9238
rfingers 7.12502
rthumb -8.39697 -18.8893
lclavicle -5.37713e-014 -2.06736e-014
lhumerus -5.05039 -8.74672 55.0088
lradius 139.28
lwrist -2.22248
lhand -30.2215 3.08322
lfingers 7.12502
lthumb -3.53132 33.0337
rfemur 4.10619 7.30471 23.8883
rtibia 20.502
rfoot -34.9363 -36.4591
rtoes -6.35806
lfemur -56.8184 7.32557 -3.70305
ltibia 47.0517
lfoot -2.90248 15.7087
ltoes 2.96009
2161
root -0.823301 14.403 -1.94456 16.0828 -16.8905 -5.59587
lowerback -8.47749 4.86083 8.20533
upperback -8.86184 5.97129 -2.25711
thorax -3.54024 2.50596 -6.5896
lowerneck -14.1786 6.55765 12.1256
upperneck 31.664 8.25156 -6.16089
head 13.9496 4.2639 -3.19382
rclavicle 2.51463e-014 -1.66979e-014
rhumerus 5.01811 27.4205 -77.0794
rradius 128.27
rwrist -11.1997
rhand -35.3437 11.089
rfingers 7.12502
rthumb -8.47645 -18.7209
lclavicle 2.51463e-014 -1.66979e-014
lhumerus -5.12916 -8.68031 54.6069
lradius 139.351
lwrist -1.93008
lhand -29.8621 3.379
lfingers 7.12502
lthumb -3.18425 33.335
rfemur 4.89708 7.48417 24.0893
rtibia 20.1435
rfoot -35.2652 -36.9426
rtoes -7.00141
lfemur -57.4374 7.07598 -4.24416
ltibia 47.6192
lfoot -2.22968 14.7818
ltoes 3.54729
2162
root -0.782538 14.3626 -1.83427 16.0354 -16.0327 -5.61938
lowerback -8.56411 5.00998 8.41004
upperback -8.95474 6.15589 -2.35197
thorax -3.53602 2.58475 -6.78538
lowerneck -14.5285 6.2401 11.7959
upperneck 31.5491 7.6856 -5.74093
head 13.8685 4.02768 -3.05674
rclavicle -5.96354e-014 -2.46493e-014
rhumerus 4.77046 26.8887 -76.8824
rradius 128.355
rwrist -10.9588
rhand -35.4539 11.0799
rfingers 7.12502
rthumb -8.58282 -18.7256
lclavicle -5.96354e-014 -2.46493e-014
lhumerus -5.19733 -8.63293 54.2378
lradius 139.382
lwrist -1.7278
lhand -29.6259 3.61869
lfingers 7.12502
lthumb -2.95616 33.5779
rfemur 5.72489 7.59545 24.2548
rtibia 19.8319
rfoot -35.5783 -37.3388
rtoes -7.76738
lfemur -58.0569 6.82997 -4.94023
ltibia 48.3746
lfoot -1.71282 13.8212
ltoes 4.37068
2163
root -0.737891 14.3216 -1.72033 15.9434 -15.1447 -5.59826
lowerback -8.63723 5.14912 8.58537
upperback -9.0452 6.32996 -2.44115
thorax -3.53996 2.65954 -6.96029
lowerneck -14.862 5.91075 11.4382
upperneck 31.4469 7.12398 -5.34088
head 13.7953 3.78847 -2.92339
rclavicle -1.77912e-014 1.19271e-014
rhumerus 4.53323 26.314 -76.6034
rradius 128.429
rwrist -10.704
rhand -35.5695 11.0522
rfingers 7.12502
rthumb -8.6944 -18.7487
lclavicle -1.77912e-014 1.19271e-014
lhumerus -5.27556 -8.60017 53.9065
lradius 139.393
lwrist -1.58896
lhand -29.5173 3.77223
lfingers 7.12502
lthumb -2.85128 33.7329
rfemur 6.57743 7.59938 24.3511
rtibia 19.5726
rfoot -35.8429 -37.6302
rtoes -8.66325
lfemur -58.6574 6.53198 -5.74984
ltibia 49.3012
lfoot -1.51376 12.921
ltoes 5.24221
2164
root -0.689247 14.2807 -1.60266 15.8196 -14.2369 -5.53809
lowerback -8.70011 5.28102 8.72903
upperback -9.14514 6.49744 -2.52131
thorax -3.56331 2.73147 -7.10971
lowerneck -15.1625 5.56861 11.0529
upperneck 31.3655 6.56825 -4.96268
head 13.7299 3.54704 -2.79455
rclavicle -1.33186e-014 -1.19271e-014
rhumerus 4.29007 25.6925 -76.2486
rradius 128.487
rwrist -10.4856
rhand -35.651 11.0511
rfingers 7.12502
rthumb -8.773 -18.7466
lclavicle -1.33186e-014 -1.19271e-014
lhumerus -5.39194 -8.60596 53.6198
lradius 139.39
lwrist -1.53448
lhand -29.5135 3.89635
lfingers 7.12502
lthumb -2.84768 33.8571
rfemur 7.43838 7.48371 24.3722
rtibia 19.366
rfoot -36.0288 -37.8122
rtoes -9.67179
lfemur -59.2242 6.12633 -6.58792
ltibia 50.3582
lfoot -1.69767 12.1805
ltoes 6.04709
2165
root -0.636628 14.2409 -1.48127 15.6774 -13.3214 -5.44645
lowerback -8.76075 5.40711 8.83717
upperback -9.25945 6.65992 -2.58625
thorax -3.60814 2.80137 -7.22445
lowerneck -15.4261 5.21679 10.6363
upperneck 31.3116 6.02419 -4.60558
head 13.6746 3.30565 -2.66821
rclavicle -3.76697e-014 5.56597e-015
rhumerus 4.03412 25.0231 -75.8207
rradius 128.525
rwrist -10.3455
rhand -35.6844 11.1138
rfingers 7.12502
rthumb -8.8053 -18.6825
lclavicle -3.76697e-014 5.56597e-015
lhumerus -5.55684 -8.65547 53.384
lradius 139.383
lwrist -1.55922
lhand -29.6105 4.01002
lfingers 7.12502
lthumb -2.94127 33.9695
rfemur 8.28489 7.24867 24.3159
rtibia 19.223
rfoot -36.0942 -37.8985
rtoes -10.8001
lfemur -59.7438 5.58088 -7.38403
ltibia 51.4828
lfoot -2.231 11.6204
ltoes 6.65486
2166
root -0.580173 14.2028 -1.3558 15.5268 -12.4046 -5.33112
lowerback -8.83217 5.53047 8.91547
upperback -9.38827 6.81993 -2.63638
thorax -3.66687 2.8706 -7.30671
lowerneck -15.6551 4.85625 10.1948
upperneck 31.2896 5.49169 -4.27275
head 13.6319 3.06448 -2.54649
rclavicle -4.51241e-014 -1.82882e-014
rhumerus 3.76918 24.3089 -75.3221
rradius 128.546
rwrist -10.2948
rhand -35.6663 11.2952
rfingers 7.12502
rthumb -8.78783 -18.5018
lclavicle -4.51241e-014 -1.82882e-014
lhumerus -5.76324 -8.74014 53.1838
lradius 139.387
lwrist -1.61146
lhand -29.7458 4.15648
lfingers 7.12502
lthumb -3.07194 34.1141
rfemur 9.10275 6.90354 24.1854
rtibia 19.1546
rfoot -36.0133 -37.8999
rtoes -12.0495
lfemur -60.2019 4.88945 -8.09782
ltibia 52.6069
lfoot -2.99596 11.2105
ltoes 7.07763
2167
root -0.520391 14.167 -1.22619 15.3638 -11.5025 -5.19012
lowerback -8.91961 5.65378 8.95304
upperback -9.52651 6.98089 -2.67146
thorax -3.7318 2.94213 -7.34898
lowerneck -15.8419 4.48605 9.73313
upperneck 31.2943 4.96916 -3.96812
head 13.5979 2.82276 -2.43184
rclavicle -5.26779e-014 -2.3059e-014
rhumerus 3.47831 23.5577 -74.7616
rradius 128.547
rwrist -10.3121
rhand -35.6261 11.5646
rfingers 7.12502
rthumb -8.74897 -18.234
lclavicle -5.26779e-014 -2.3059e-014
lhumerus -5.99011 -8.85372 53.0265
lradius 139.412
lwrist -1.61613
lhand -29.8549 4.27859
lfingers 7.12502
lthumb -3.17734 34.2347
rfemur 9.88673 6.48088 23.9789
rtibia 19.1805
rfoot -35.7548 -37.842
rtoes -13.4439
lfemur -60.5645 4.08541 -8.73908
ltibia 53.6663
lfoot -3.88038 10.871
ltoes 7.30567
2168
root -0.458033 14.1341 -1.09238 15.1809 -10.6295 -5.02245
lowerback -9.01905 5.77976 8.93798
upperback -9.67496 7.14744 -2.69077
thorax -3.80671 3.01883 -7.34381
lowerneck -15.9722 4.10804 9.24651
upperneck 31.325 4.45695 -3.67779
head 13.5684 2.58195 -2.31771
rclavicle 1.66979e-014 1.51076e-014
rhumerus 3.14627 22.7838 -74.1423
rradius 128.54
rwrist -10.3722
rhand -35.5943 11.8051
rfingers 7.12502
rthumb -8.7183 -17.9948
lclavicle 1.66979e-014 1.51076e-014
lhumerus -6.23378 -9.01149 52.9175
lradius 139.46
lwrist -1.58462
lhand -29.93 4.42484
lfingers 7.12502
lthumb -3.24984 34.3798
rfemur 10.6361 6.03062 23.7056
rtibia 19.3214
rfoot -35.3567 -37.7388
rtoes -14.8954
lfemur -60.7983 3.23237 -9.34754
ltibia 54.6169
lfoot -4.79503 10.5815
ltoes 7.27149
2169
root -0.393699 14.1047 -0.954647 14.9547 -9.79235 -4.79019
lowerback -9.13777 5.9029 8.83306
upperback -9.8051 7.31232 -2.70772
thorax -3.86019 3.10162 -7.28289
lowerneck -16.0737 3.72226 8.76283
upperneck 31.3657 3.95098 -3.42876
head 13.5434 2.33911 -2.21959
rclavicle -1.5704e-014 -3.26007e-014
rhumerus 2.78995 21.9863 -73.4669
rradius 128.522
rwrist -10.4313
rhand -35.5959 12.0046
rfingers 7.12502
rthumb -8.71984 -17.7953
lclavicle -1.5704e-014 -3.26007e-014
lhumerus -6.43568 -9.18059 52.8616
lradius 139.525
lwrist -1.42529
lhand -29.879 4.47599
lfingers 7.12502
lthumb -3.20057 34.4317
rfemur 11.3588 5.5756 23.3334
rtibia 19.6106
rfoot -34.8568 -37.5818
rtoes -16.3415
lfemur -60.86 2.38039 -10.0109
ltibia 55.4342
lfoot -5.68415 10.3531
ltoes 6.89044
2170
root -0.328157 14.0807 -0.813366 14.6786 -9.00386 -4.48765
lowerback -9.25269 6.01999 8.61735
upperback -9.93142 7.47534 -2.71892
thorax -3.92387 3.18959 -7.15468
lowerneck -16.123 3.33298 8.27477
upperneck 31.4333 3.45496 -3.19993
head 13.5245 2.09827 -2.12743
rclavicle 7.7526e-014 5.32743e-014
rhumerus 2.36105 21.191 -72.7543
rradius 128.508
rwrist -10.4658
rhand -35.6399 12.0495
rfingers 7.12502
rthumb -8.76234 -17.7486
lclavicle 7.7526e-014 5.32743e-014
lhumerus -6.63633 -9.40328 52.8711
lradius 139.593
lwrist -1.27065
lhand -29.8217 4.50193
lfingers 7.12502
lthumb -3.14528 34.4585
rfemur 12.04 5.14135 22.8622
rtibia 20.0834
rfoot -34.295 -37.3596
rtoes -17.6811
lfemur -60.7355 1.59221 -10.7726
ltibia 56.1179
lfoot -6.52739 10.1218
ltoes 6.34691
